<?xml version="1.0" encoding="UTF-8" standalone="no"?>
<!-- Created with Inkscape (http://www.inkscape.org/) -->

<svg
   xmlns:dc="http://purl.org/dc/elements/1.1/"
   xmlns:cc="http://creativecommons.org/ns#"
   xmlns:rdf="http://www.w3.org/1999/02/22-rdf-syntax-ns#"
   xmlns:svg="http://www.w3.org/2000/svg"
   xmlns="http://www.w3.org/2000/svg"
   xmlns:sodipodi="http://sodipodi.sourceforge.net/DTD/sodipodi-0.dtd"
   xmlns:inkscape="http://www.inkscape.org/namespaces/inkscape"
   width="744.09448819"
   height="1052.3622047"
   id="svg2"
   version="1.1"
   inkscape:version="0.48.3.1 r9886"
   sodipodi:docname="drawing.svg">
  <defs
     id="defs4" />
  <sodipodi:namedview
     id="base"
     pagecolor="#ffffff"
     bordercolor="#666666"
     borderopacity="1.0"
     inkscape:pageopacity="0.0"
     inkscape:pageshadow="2"
     inkscape:zoom="1"
     inkscape:cx="334.2678"
     inkscape:cy="731.44457"
     inkscape:document-units="px"
     inkscape:current-layer="layer1"
     showgrid="false"
     inkscape:window-width="1215"
     inkscape:window-height="1000"
     inkscape:window-x="65"
     inkscape:window-y="24"
     inkscape:window-maximized="1" />
  <metadata
     id="metadata7">
    <rdf:RDF>
      <cc:Work
         rdf:about="">
        <dc:format>image/svg+xml</dc:format>
        <dc:type
           rdf:resource="http://purl.org/dc/dcmitype/StillImage" />
        <dc:title />
      </cc:Work>
    </rdf:RDF>
  </metadata>
  <g
     inkscape:label="Layer 1"
     inkscape:groupmode="layer"
     id="layer1">
    <g
       id="g3028"
       transform="translate(-120,-519)">
      <g
         id="g3018">
        <path
           style="fill:none;stroke:#ff0000"
           d="m 232.40625,528.0625 0,7.09375 -13.09375,0 0,17.71875 13.09375,0 0,38.96875 -13.09375,0 0,17.71875 13.09375,0 0,7.09375 59.6875,0 c 41.20965,0 74.625,-19.81981 74.625,-44.28125 0,-24.46144 -33.41535,-44.3125 -74.625,-44.3125 l -59.6875,0 z"
           id="rect3313"
           inkscape:connector-curvature="0" />
        <path
           style="fill:none;stroke:#ff0000"
           d="m 267.84375,558.1875 0,4.78125 -35.4375,0 0,18.78125 35.4375,0 0,4.78125 14.15625,0 0,-4.78125 10.65625,0 0,-18.78125 -10.65625,0 0,-4.78125 -14.15625,0 z"
           id="rect3323"
           inkscape:connector-curvature="0" />
      </g>
      <g
         transform="translate(-4.2857143,100.71429)"
         id="g3022">
        <path
           inkscape:connector-curvature="0"
           id="path3024"
           d="m 232.40625,528.0625 0,7.09375 -13.09375,0 0,17.71875 13.09375,0 0,38.96875 -13.09375,0 0,17.71875 13.09375,0 0,7.09375 59.6875,0 c 41.20965,0 74.625,-19.81981 74.625,-44.28125 0,-24.46144 -33.41535,-44.3125 -74.625,-44.3125 l -59.6875,0 z"
           style="fill:none;stroke:#ff0000" />
        <path
           inkscape:connector-curvature="0"
           id="path3026"
           d="m 267.84375,558.1875 0,4.78125 -35.4375,0 0,18.78125 35.4375,0 0,4.78125 14.15625,0 0,-4.78125 10.65625,0 0,-18.78125 -10.65625,0 0,-4.78125 -14.15625,0 z"
           style="fill:none;stroke:#ff0000" />
      </g>
    </g>
    <g
       transform="translate(-118.28571,-323.78571)"
       id="g3044">
      <path
         inkscape:connector-curvature="0"
         id="path3046"
         d="m 232.40625,528.0625 0,7.09375 -13.09375,0 0,17.71875 13.09375,0 0,38.96875 -13.09375,0 0,17.71875 13.09375,0 0,7.09375 59.6875,0 c 41.20965,0 74.625,-19.81981 74.625,-44.28125 0,-24.46144 -33.41535,-44.3125 -74.625,-44.3125 l -59.6875,0 z"
         style="fill:none;stroke:#ff0000" />
      <path
         inkscape:connector-curvature="0"
         id="path3048"
         d="m 267.84375,558.1875 0,4.78125 -35.4375,0 0,18.78125 35.4375,0 0,4.78125 14.15625,0 0,-4.78125 10.65625,0 0,-18.78125 -10.65625,0 0,-4.78125 -14.15625,0 z"
         style="fill:none;stroke:#ff0000" />
    </g>
    <g
       style="display:inline"
       id="g3559"
       transform="translate(-11.0594,-754.26169)">
      <rect
         y="16.262476"
         x="-1025.9998"
         height="87.593842"
         width="264.75177"
         id="rect3457"
         style="fill:none;stroke:#ff0000;stroke-width:1"
         transform="matrix(0,-1,1,0,0,0)" />
      <rect
         y="771.48499"
         x="78.977211"
         height="13.414173"
         width="17.871655"
         id="rect3459"
         style="fill:none;stroke:#ff0000;stroke-width:1" />
      <path
         sodipodi:type="arc"
         style="fill:none;stroke:#ff0000;stroke-width:1.00751889"
         id="path3461"
         sodipodi:cx="-451.77167"
         sodipodi:cy="830.90552"
         sodipodi:rx="8.8582678"
         sodipodi:ry="8.8582678"
         d="m -442.9134,830.90552 c 0,4.89228 -3.96598,8.85827 -8.85827,8.85827 -4.89228,0 -8.85827,-3.96599 -8.85827,-8.85827 0,-4.89229 3.96599,-8.85827 8.85827,-8.85827 4.89229,0 8.85827,3.96598 8.85827,8.85827 z"
         transform="matrix(-1.0481673,0,0,-1.0560263,-413.47282,1655.8267)" />
      <rect
         style="fill:none;stroke:#ff0000;stroke-width:1"
         id="rect3463"
         width="17.871655"
         height="13.414173"
         x="22.917078"
         y="771.48499" />
      <rect
         style="fill:none;stroke:#ff0000;stroke-width:1"
         id="rect3465"
         width="17.871655"
         height="13.414173"
         x="78.977211"
         y="1001.9956" />
      <path
         transform="matrix(-1.0481673,0,0,-1.0560263,-413.47282,1886.3373)"
         d="m -442.9134,830.90552 c 0,4.89228 -3.96598,8.85827 -8.85827,8.85827 -4.89228,0 -8.85827,-3.96599 -8.85827,-8.85827 0,-4.89229 3.96599,-8.85827 8.85827,-8.85827 4.89229,0 8.85827,3.96598 8.85827,8.85827 z"
         sodipodi:ry="8.8582678"
         sodipodi:rx="8.8582678"
         sodipodi:cy="830.90552"
         sodipodi:cx="-451.77167"
         id="path3467"
         style="fill:none;stroke:#ff0000;stroke-width:1.00751889"
         sodipodi:type="arc" />
      <rect
         y="1001.9956"
         x="22.917078"
         height="13.414173"
         width="17.871655"
         id="rect3469"
         style="fill:none;stroke:#ff0000;stroke-width:1" />
      <rect
         style="fill:none;stroke:#ff0000;stroke-width:1"
         id="rect3471"
         width="17.871655"
         height="13.414173"
         x="78.977272"
         y="886.7403" />
      <path
         transform="matrix(-1.0481673,0,0,-1.0560263,-413.47282,1771.082)"
         d="m -442.9134,830.90552 c 0,4.89228 -3.96598,8.85827 -8.85827,8.85827 -4.89228,0 -8.85827,-3.96599 -8.85827,-8.85827 0,-4.89229 3.96599,-8.85827 8.85827,-8.85827 4.89229,0 8.85827,3.96598 8.85827,8.85827 z"
         sodipodi:ry="8.8582678"
         sodipodi:rx="8.8582678"
         sodipodi:cy="830.90552"
         sodipodi:cx="-451.77167"
         id="path3473"
         style="fill:none;stroke:#ff0000;stroke-width:1.00751889"
         sodipodi:type="arc" />
      <rect
         y="886.7403"
         x="22.917139"
         height="13.414173"
         width="17.871655"
         id="rect3475"
         style="fill:none;stroke:#ff0000;stroke-width:1" />
    </g>
  </g>
</svg>
